G04 #@! TF.GenerationSoftware,KiCad,Pcbnew,(5.1.5-0-10_14)*
G04 #@! TF.CreationDate,2020-08-30T09:08:57+09:00*
G04 #@! TF.ProjectId,BreadboardController,42726561-6462-46f6-9172-64436f6e7472,2.0*
G04 #@! TF.SameCoordinates,Original*
G04 #@! TF.FileFunction,Soldermask,Top*
G04 #@! TF.FilePolarity,Negative*
%FSLAX46Y46*%
G04 Gerber Fmt 4.6, Leading zero omitted, Abs format (unit mm)*
G04 Created by KiCad (PCBNEW (5.1.5-0-10_14)) date 2020-08-30 09:08:57*
%MOMM*%
%LPD*%
G04 APERTURE LIST*
%ADD10C,0.100000*%
G04 APERTURE END LIST*
D10*
G36*
X154851000Y-99851000D02*
G01*
X152749000Y-99851000D01*
X152749000Y-98549000D01*
X154851000Y-98549000D01*
X154851000Y-99851000D01*
G37*
G36*
X149251000Y-99851000D02*
G01*
X147149000Y-99851000D01*
X147149000Y-98549000D01*
X149251000Y-98549000D01*
X149251000Y-99851000D01*
G37*
G36*
X135248228Y-95181703D02*
G01*
X135403100Y-95245853D01*
X135542481Y-95338985D01*
X135661015Y-95457519D01*
X135754147Y-95596900D01*
X135818297Y-95751772D01*
X135851000Y-95916184D01*
X135851000Y-96083816D01*
X135818297Y-96248228D01*
X135754147Y-96403100D01*
X135661015Y-96542481D01*
X135542481Y-96661015D01*
X135403100Y-96754147D01*
X135248228Y-96818297D01*
X135083816Y-96851000D01*
X134916184Y-96851000D01*
X134751772Y-96818297D01*
X134596900Y-96754147D01*
X134457519Y-96661015D01*
X134338985Y-96542481D01*
X134245853Y-96403100D01*
X134181703Y-96248228D01*
X134149000Y-96083816D01*
X134149000Y-95916184D01*
X134181703Y-95751772D01*
X134245853Y-95596900D01*
X134338985Y-95457519D01*
X134457519Y-95338985D01*
X134596900Y-95245853D01*
X134751772Y-95181703D01*
X134916184Y-95149000D01*
X135083816Y-95149000D01*
X135248228Y-95181703D01*
G37*
G36*
X154851000Y-95851000D02*
G01*
X152749000Y-95851000D01*
X152749000Y-94549000D01*
X154851000Y-94549000D01*
X154851000Y-95851000D01*
G37*
G36*
X149251000Y-95851000D02*
G01*
X147149000Y-95851000D01*
X147149000Y-94549000D01*
X149251000Y-94549000D01*
X149251000Y-95851000D01*
G37*
G36*
X160851000Y-93851000D02*
G01*
X159549000Y-93851000D01*
X159549000Y-91749000D01*
X160851000Y-91749000D01*
X160851000Y-93851000D01*
G37*
G36*
X142451000Y-93851000D02*
G01*
X141149000Y-93851000D01*
X141149000Y-91749000D01*
X142451000Y-91749000D01*
X142451000Y-93851000D01*
G37*
G36*
X146451000Y-93851000D02*
G01*
X145149000Y-93851000D01*
X145149000Y-91749000D01*
X146451000Y-91749000D01*
X146451000Y-93851000D01*
G37*
G36*
X156851000Y-93851000D02*
G01*
X155549000Y-93851000D01*
X155549000Y-91749000D01*
X156851000Y-91749000D01*
X156851000Y-93851000D01*
G37*
G36*
X138651000Y-92551000D02*
G01*
X136549000Y-92551000D01*
X136549000Y-91449000D01*
X138651000Y-91449000D01*
X138651000Y-92551000D01*
G37*
G36*
X138651000Y-90551000D02*
G01*
X136549000Y-90551000D01*
X136549000Y-89449000D01*
X138651000Y-89449000D01*
X138651000Y-90551000D01*
G37*
G36*
X138651000Y-88551000D02*
G01*
X136549000Y-88551000D01*
X136549000Y-87449000D01*
X138651000Y-87449000D01*
X138651000Y-88551000D01*
G37*
G36*
X142451000Y-88251000D02*
G01*
X141149000Y-88251000D01*
X141149000Y-86149000D01*
X142451000Y-86149000D01*
X142451000Y-88251000D01*
G37*
G36*
X160851000Y-88251000D02*
G01*
X159549000Y-88251000D01*
X159549000Y-86149000D01*
X160851000Y-86149000D01*
X160851000Y-88251000D01*
G37*
G36*
X156851000Y-88251000D02*
G01*
X155549000Y-88251000D01*
X155549000Y-86149000D01*
X156851000Y-86149000D01*
X156851000Y-88251000D01*
G37*
G36*
X146451000Y-88251000D02*
G01*
X145149000Y-88251000D01*
X145149000Y-86149000D01*
X146451000Y-86149000D01*
X146451000Y-88251000D01*
G37*
G36*
X149251000Y-85451000D02*
G01*
X147149000Y-85451000D01*
X147149000Y-84149000D01*
X149251000Y-84149000D01*
X149251000Y-85451000D01*
G37*
G36*
X154851000Y-85451000D02*
G01*
X152749000Y-85451000D01*
X152749000Y-84149000D01*
X154851000Y-84149000D01*
X154851000Y-85451000D01*
G37*
G36*
X123248228Y-83181703D02*
G01*
X123403100Y-83245853D01*
X123542481Y-83338985D01*
X123661015Y-83457519D01*
X123754147Y-83596900D01*
X123818297Y-83751772D01*
X123851000Y-83916184D01*
X123851000Y-84083816D01*
X123818297Y-84248228D01*
X123754147Y-84403100D01*
X123661015Y-84542481D01*
X123542481Y-84661015D01*
X123403100Y-84754147D01*
X123248228Y-84818297D01*
X123083816Y-84851000D01*
X122916184Y-84851000D01*
X122751772Y-84818297D01*
X122596900Y-84754147D01*
X122457519Y-84661015D01*
X122338985Y-84542481D01*
X122245853Y-84403100D01*
X122181703Y-84248228D01*
X122149000Y-84083816D01*
X122149000Y-83916184D01*
X122181703Y-83751772D01*
X122245853Y-83596900D01*
X122338985Y-83457519D01*
X122457519Y-83338985D01*
X122596900Y-83245853D01*
X122751772Y-83181703D01*
X122916184Y-83149000D01*
X123083816Y-83149000D01*
X123248228Y-83181703D01*
G37*
G36*
X131551000Y-82451000D02*
G01*
X130449000Y-82451000D01*
X130449000Y-80349000D01*
X131551000Y-80349000D01*
X131551000Y-82451000D01*
G37*
G36*
X129551000Y-82451000D02*
G01*
X128449000Y-82451000D01*
X128449000Y-80349000D01*
X129551000Y-80349000D01*
X129551000Y-82451000D01*
G37*
G36*
X127551000Y-82451000D02*
G01*
X126449000Y-82451000D01*
X126449000Y-80349000D01*
X127551000Y-80349000D01*
X127551000Y-82451000D01*
G37*
G36*
X154851000Y-81451000D02*
G01*
X152749000Y-81451000D01*
X152749000Y-80149000D01*
X154851000Y-80149000D01*
X154851000Y-81451000D01*
G37*
G36*
X149251000Y-81451000D02*
G01*
X147149000Y-81451000D01*
X147149000Y-80149000D01*
X149251000Y-80149000D01*
X149251000Y-81451000D01*
G37*
G36*
X131661000Y-77450999D02*
G01*
X130559000Y-77450999D01*
X130559000Y-74549001D01*
X131661000Y-74549001D01*
X131661000Y-77450999D01*
G37*
G36*
X134201000Y-77450999D02*
G01*
X133099000Y-77450999D01*
X133099000Y-74549001D01*
X134201000Y-74549001D01*
X134201000Y-77450999D01*
G37*
G36*
X136741000Y-77450999D02*
G01*
X135639000Y-77450999D01*
X135639000Y-74549001D01*
X136741000Y-74549001D01*
X136741000Y-77450999D01*
G37*
G36*
X146901000Y-77450999D02*
G01*
X145799000Y-77450999D01*
X145799000Y-74549001D01*
X146901000Y-74549001D01*
X146901000Y-77450999D01*
G37*
G36*
X144361000Y-77450999D02*
G01*
X143259000Y-77450999D01*
X143259000Y-74549001D01*
X144361000Y-74549001D01*
X144361000Y-77450999D01*
G37*
G36*
X141821000Y-77450999D02*
G01*
X140719000Y-77450999D01*
X140719000Y-74549001D01*
X141821000Y-74549001D01*
X141821000Y-77450999D01*
G37*
G36*
X139281000Y-77450999D02*
G01*
X138179000Y-77450999D01*
X138179000Y-74549001D01*
X139281000Y-74549001D01*
X139281000Y-77450999D01*
G37*
G36*
X149441000Y-77450999D02*
G01*
X148339000Y-77450999D01*
X148339000Y-74549001D01*
X149441000Y-74549001D01*
X149441000Y-77450999D01*
G37*
M02*
