G04 #@! TF.GenerationSoftware,KiCad,Pcbnew,(5.1.5-0-10_14)*
G04 #@! TF.CreationDate,2020-08-30T09:08:57+09:00*
G04 #@! TF.ProjectId,BreadboardController,42726561-6462-46f6-9172-64436f6e7472,2.0*
G04 #@! TF.SameCoordinates,Original*
G04 #@! TF.FileFunction,Copper,L2,Bot*
G04 #@! TF.FilePolarity,Positive*
%FSLAX46Y46*%
G04 Gerber Fmt 4.6, Leading zero omitted, Abs format (unit mm)*
G04 Created by KiCad (PCBNEW (5.1.5-0-10_14)) date 2020-08-30 09:08:57*
%MOMM*%
%LPD*%
G04 APERTURE LIST*
%ADD10C,0.609600*%
%ADD11C,0.304800*%
%ADD12C,0.254000*%
G04 APERTURE END LIST*
D10*
X129000000Y-90000000D03*
X143800000Y-90000000D03*
X151000000Y-82800000D03*
X158200000Y-90000000D03*
X151000000Y-97200000D03*
D11*
X129000000Y-90000000D02*
X143800000Y-90000000D01*
X143800000Y-90000000D02*
X151000000Y-82800000D01*
X151000000Y-82800000D02*
X158200000Y-90000000D01*
X158200000Y-90000000D02*
X151000000Y-97200000D01*
X151000000Y-97200000D02*
X143800000Y-90000000D01*
D12*
G36*
X149740001Y-77032419D02*
G01*
X149742783Y-77060664D01*
X149742740Y-77066801D01*
X149743640Y-77075972D01*
X149764041Y-77270069D01*
X149776068Y-77328658D01*
X149787277Y-77387423D01*
X149789941Y-77396245D01*
X149847653Y-77582683D01*
X149870838Y-77637838D01*
X149893242Y-77693291D01*
X149897568Y-77701427D01*
X149990393Y-77873104D01*
X150023846Y-77922699D01*
X150056600Y-77972753D01*
X150062424Y-77979894D01*
X150186828Y-78130272D01*
X150229263Y-78172411D01*
X150271126Y-78215161D01*
X150278227Y-78221034D01*
X150429469Y-78344384D01*
X150479277Y-78377477D01*
X150528651Y-78411284D01*
X150536757Y-78415667D01*
X150709080Y-78507292D01*
X150764392Y-78530090D01*
X150819366Y-78553652D01*
X150828169Y-78556377D01*
X151015006Y-78612786D01*
X151073686Y-78624405D01*
X151132196Y-78636842D01*
X151141361Y-78637805D01*
X151335594Y-78656850D01*
X151335598Y-78656850D01*
X151367581Y-78660000D01*
X156972911Y-78660000D01*
X157871797Y-78733902D01*
X158720182Y-78947001D01*
X159522371Y-79295803D01*
X160256818Y-79770938D01*
X160903798Y-80359646D01*
X161445946Y-81046125D01*
X161868692Y-81811928D01*
X162160684Y-82636491D01*
X162316116Y-83509076D01*
X162340000Y-84015547D01*
X162340001Y-95972899D01*
X162266098Y-96871802D01*
X162052999Y-97720180D01*
X161704197Y-98522371D01*
X161229062Y-99256818D01*
X160640354Y-99903799D01*
X159953875Y-100445946D01*
X159188076Y-100868691D01*
X158363514Y-101160683D01*
X157490925Y-101316116D01*
X156984453Y-101340000D01*
X123027089Y-101340000D01*
X122128198Y-101266098D01*
X121279820Y-101052999D01*
X120477629Y-100704197D01*
X119743182Y-100229062D01*
X119096201Y-99640354D01*
X118554054Y-98953875D01*
X118131309Y-98188076D01*
X117839317Y-97363514D01*
X117683884Y-96490925D01*
X117660000Y-95984453D01*
X117660000Y-95858665D01*
X133565000Y-95858665D01*
X133565000Y-96141335D01*
X133620147Y-96418574D01*
X133728320Y-96679727D01*
X133885363Y-96914759D01*
X134085241Y-97114637D01*
X134320273Y-97271680D01*
X134581426Y-97379853D01*
X134858665Y-97435000D01*
X135141335Y-97435000D01*
X135418574Y-97379853D01*
X135679727Y-97271680D01*
X135914759Y-97114637D01*
X136114637Y-96914759D01*
X136271680Y-96679727D01*
X136379853Y-96418574D01*
X136435000Y-96141335D01*
X136435000Y-95858665D01*
X136379853Y-95581426D01*
X136271680Y-95320273D01*
X136114637Y-95085241D01*
X135914759Y-94885363D01*
X135679727Y-94728320D01*
X135418574Y-94620147D01*
X135141335Y-94565000D01*
X134858665Y-94565000D01*
X134581426Y-94620147D01*
X134320273Y-94728320D01*
X134085241Y-94885363D01*
X133885363Y-95085241D01*
X133728320Y-95320273D01*
X133620147Y-95581426D01*
X133565000Y-95858665D01*
X117660000Y-95858665D01*
X117660000Y-84027089D01*
X117673846Y-83858665D01*
X121565000Y-83858665D01*
X121565000Y-84141335D01*
X121620147Y-84418574D01*
X121728320Y-84679727D01*
X121885363Y-84914759D01*
X122085241Y-85114637D01*
X122320273Y-85271680D01*
X122581426Y-85379853D01*
X122858665Y-85435000D01*
X123141335Y-85435000D01*
X123418574Y-85379853D01*
X123679727Y-85271680D01*
X123914759Y-85114637D01*
X124114637Y-84914759D01*
X124271680Y-84679727D01*
X124379853Y-84418574D01*
X124435000Y-84141335D01*
X124435000Y-83858665D01*
X124379853Y-83581426D01*
X124271680Y-83320273D01*
X124114637Y-83085241D01*
X123914759Y-82885363D01*
X123679727Y-82728320D01*
X123418574Y-82620147D01*
X123141335Y-82565000D01*
X122858665Y-82565000D01*
X122581426Y-82620147D01*
X122320273Y-82728320D01*
X122085241Y-82885363D01*
X121885363Y-83085241D01*
X121728320Y-83320273D01*
X121620147Y-83581426D01*
X121565000Y-83858665D01*
X117673846Y-83858665D01*
X117733902Y-83128203D01*
X117947001Y-82279818D01*
X118295803Y-81477629D01*
X118770938Y-80743182D01*
X119359646Y-80096202D01*
X120046125Y-79554054D01*
X120811928Y-79131308D01*
X121636491Y-78839316D01*
X122509076Y-78683884D01*
X123015547Y-78660000D01*
X128632419Y-78660000D01*
X128660674Y-78657217D01*
X128666801Y-78657260D01*
X128675972Y-78656360D01*
X128870069Y-78635959D01*
X128928658Y-78623932D01*
X128987423Y-78612723D01*
X128996245Y-78610059D01*
X129182683Y-78552347D01*
X129237838Y-78529162D01*
X129293291Y-78506758D01*
X129301427Y-78502432D01*
X129473104Y-78409607D01*
X129522699Y-78376154D01*
X129572753Y-78343400D01*
X129579894Y-78337576D01*
X129730272Y-78213172D01*
X129772411Y-78170737D01*
X129815161Y-78128874D01*
X129821034Y-78121773D01*
X129944384Y-77970531D01*
X129977477Y-77920723D01*
X130011284Y-77871349D01*
X130015667Y-77863243D01*
X130107292Y-77690920D01*
X130130090Y-77635608D01*
X130153652Y-77580634D01*
X130156377Y-77571831D01*
X130212786Y-77384994D01*
X130224405Y-77326314D01*
X130236842Y-77267804D01*
X130237805Y-77258639D01*
X130256850Y-77064406D01*
X130256850Y-77064402D01*
X130260000Y-77032419D01*
X130260000Y-74160000D01*
X149740000Y-74160000D01*
X149740001Y-77032419D01*
G37*
X149740001Y-77032419D02*
X149742783Y-77060664D01*
X149742740Y-77066801D01*
X149743640Y-77075972D01*
X149764041Y-77270069D01*
X149776068Y-77328658D01*
X149787277Y-77387423D01*
X149789941Y-77396245D01*
X149847653Y-77582683D01*
X149870838Y-77637838D01*
X149893242Y-77693291D01*
X149897568Y-77701427D01*
X149990393Y-77873104D01*
X150023846Y-77922699D01*
X150056600Y-77972753D01*
X150062424Y-77979894D01*
X150186828Y-78130272D01*
X150229263Y-78172411D01*
X150271126Y-78215161D01*
X150278227Y-78221034D01*
X150429469Y-78344384D01*
X150479277Y-78377477D01*
X150528651Y-78411284D01*
X150536757Y-78415667D01*
X150709080Y-78507292D01*
X150764392Y-78530090D01*
X150819366Y-78553652D01*
X150828169Y-78556377D01*
X151015006Y-78612786D01*
X151073686Y-78624405D01*
X151132196Y-78636842D01*
X151141361Y-78637805D01*
X151335594Y-78656850D01*
X151335598Y-78656850D01*
X151367581Y-78660000D01*
X156972911Y-78660000D01*
X157871797Y-78733902D01*
X158720182Y-78947001D01*
X159522371Y-79295803D01*
X160256818Y-79770938D01*
X160903798Y-80359646D01*
X161445946Y-81046125D01*
X161868692Y-81811928D01*
X162160684Y-82636491D01*
X162316116Y-83509076D01*
X162340000Y-84015547D01*
X162340001Y-95972899D01*
X162266098Y-96871802D01*
X162052999Y-97720180D01*
X161704197Y-98522371D01*
X161229062Y-99256818D01*
X160640354Y-99903799D01*
X159953875Y-100445946D01*
X159188076Y-100868691D01*
X158363514Y-101160683D01*
X157490925Y-101316116D01*
X156984453Y-101340000D01*
X123027089Y-101340000D01*
X122128198Y-101266098D01*
X121279820Y-101052999D01*
X120477629Y-100704197D01*
X119743182Y-100229062D01*
X119096201Y-99640354D01*
X118554054Y-98953875D01*
X118131309Y-98188076D01*
X117839317Y-97363514D01*
X117683884Y-96490925D01*
X117660000Y-95984453D01*
X117660000Y-95858665D01*
X133565000Y-95858665D01*
X133565000Y-96141335D01*
X133620147Y-96418574D01*
X133728320Y-96679727D01*
X133885363Y-96914759D01*
X134085241Y-97114637D01*
X134320273Y-97271680D01*
X134581426Y-97379853D01*
X134858665Y-97435000D01*
X135141335Y-97435000D01*
X135418574Y-97379853D01*
X135679727Y-97271680D01*
X135914759Y-97114637D01*
X136114637Y-96914759D01*
X136271680Y-96679727D01*
X136379853Y-96418574D01*
X136435000Y-96141335D01*
X136435000Y-95858665D01*
X136379853Y-95581426D01*
X136271680Y-95320273D01*
X136114637Y-95085241D01*
X135914759Y-94885363D01*
X135679727Y-94728320D01*
X135418574Y-94620147D01*
X135141335Y-94565000D01*
X134858665Y-94565000D01*
X134581426Y-94620147D01*
X134320273Y-94728320D01*
X134085241Y-94885363D01*
X133885363Y-95085241D01*
X133728320Y-95320273D01*
X133620147Y-95581426D01*
X133565000Y-95858665D01*
X117660000Y-95858665D01*
X117660000Y-84027089D01*
X117673846Y-83858665D01*
X121565000Y-83858665D01*
X121565000Y-84141335D01*
X121620147Y-84418574D01*
X121728320Y-84679727D01*
X121885363Y-84914759D01*
X122085241Y-85114637D01*
X122320273Y-85271680D01*
X122581426Y-85379853D01*
X122858665Y-85435000D01*
X123141335Y-85435000D01*
X123418574Y-85379853D01*
X123679727Y-85271680D01*
X123914759Y-85114637D01*
X124114637Y-84914759D01*
X124271680Y-84679727D01*
X124379853Y-84418574D01*
X124435000Y-84141335D01*
X124435000Y-83858665D01*
X124379853Y-83581426D01*
X124271680Y-83320273D01*
X124114637Y-83085241D01*
X123914759Y-82885363D01*
X123679727Y-82728320D01*
X123418574Y-82620147D01*
X123141335Y-82565000D01*
X122858665Y-82565000D01*
X122581426Y-82620147D01*
X122320273Y-82728320D01*
X122085241Y-82885363D01*
X121885363Y-83085241D01*
X121728320Y-83320273D01*
X121620147Y-83581426D01*
X121565000Y-83858665D01*
X117673846Y-83858665D01*
X117733902Y-83128203D01*
X117947001Y-82279818D01*
X118295803Y-81477629D01*
X118770938Y-80743182D01*
X119359646Y-80096202D01*
X120046125Y-79554054D01*
X120811928Y-79131308D01*
X121636491Y-78839316D01*
X122509076Y-78683884D01*
X123015547Y-78660000D01*
X128632419Y-78660000D01*
X128660674Y-78657217D01*
X128666801Y-78657260D01*
X128675972Y-78656360D01*
X128870069Y-78635959D01*
X128928658Y-78623932D01*
X128987423Y-78612723D01*
X128996245Y-78610059D01*
X129182683Y-78552347D01*
X129237838Y-78529162D01*
X129293291Y-78506758D01*
X129301427Y-78502432D01*
X129473104Y-78409607D01*
X129522699Y-78376154D01*
X129572753Y-78343400D01*
X129579894Y-78337576D01*
X129730272Y-78213172D01*
X129772411Y-78170737D01*
X129815161Y-78128874D01*
X129821034Y-78121773D01*
X129944384Y-77970531D01*
X129977477Y-77920723D01*
X130011284Y-77871349D01*
X130015667Y-77863243D01*
X130107292Y-77690920D01*
X130130090Y-77635608D01*
X130153652Y-77580634D01*
X130156377Y-77571831D01*
X130212786Y-77384994D01*
X130224405Y-77326314D01*
X130236842Y-77267804D01*
X130237805Y-77258639D01*
X130256850Y-77064406D01*
X130256850Y-77064402D01*
X130260000Y-77032419D01*
X130260000Y-74160000D01*
X149740000Y-74160000D01*
X149740001Y-77032419D01*
M02*
